<?xml version="1.0" encoding="UTF-8"?> <svg xmlns="http://www.w3.org/2000/svg" width="625" height="344" viewBox="0 0 625 344" fill="none"><g clip-path="url(#clip0)"><path d="M387.5 335.8C386.6 328.8 385.2 321.9 383.5 315.1C387.7 313.6 392.5 311.6 396.7 310.1L398.7 309.3C400.2 315.6 402.3 322.3 403.7 328.6" fill="white"></path><path d="M387.7 335.7L387.2 335.8C386.3 328.8 384.9 321.9 383.2 315.1L383.1 314.9L383.3 314.8C385.4 314.1 387.7 313.1 389.9 312.3C392.1 311.5 394.4 310.5 396.5 309.8L398.8 308.9L398.9 309.2C399.6 312.3 400.5 315.6 401.4 318.8C402.3 322 403.2 325.3 403.9 328.4L403.4 328.5C402.7 325.4 401.8 322.1 400.9 318.9C400 315.7 399.2 312.6 398.4 309.5L396.7 310.1C394.6 310.9 392.3 311.8 390.2 312.6C388 313.4 385.8 314.3 383.8 315C385.5 321.9 386.8 328.8 387.7 335.7Z" fill="#1C1923"></path><path d="M425.1 325.2C424 324.3 422.4 324.3 420.9 324.4C415 324.7 408.2 324.4 402.3 324.7L396.7 330.9C396.3 331.7 395.6 332.3 394.7 332.6L391.5 333.8C389.9 334.4 389.1 335.2 388.1 333.8C387.3 332.7 386.6 332.9 385.9 331.9C385.9 331.8 385.8 331.8 385.7 331.8C385.6 331.8 385.6 331.9 385.6 332C385.9 334.9 386 339.2 386.2 342.3C386.2 342.9 386.8 343.3 387.3 343.3C387.4 343.3 387.5 343.3 387.6 343.2L423.2 330.5C426.1 329.3 426.3 326.1 425.1 325.2Z" fill="#1C1923"></path><path d="M386.4 341.9C386.4 342 386.4 342.2 386.4 342.3C386.4 342.9 386.9 343.3 387.5 343.3C387.6 343.3 387.7 343.3 387.8 343.2L423.4 330.5C425.1 329.7 425.7 329.5 425.7 328.3L386.4 341.9Z" fill="#1C1923"></path><path d="M463 298.5C456.9 294.9 450.7 291.7 444.2 288.9C445.6 284.7 447 279.6 448.4 275.4L449 273.4C454.9 276.1 461.4 278.6 467.3 281.3" fill="white"></path><path d="M462.8 298.7C456.7 295.1 450.5 291.9 444 289.1L443.8 289L443.9 288.8C444.6 286.7 445.3 284.3 446 282.1C446.7 279.8 447.4 277.5 448.1 275.3L448.8 273L449.1 273.1C452 274.5 455.2 275.8 458.2 277C461.3 278.3 464.4 279.6 467.4 281L467.2 281.5C464.3 280.1 461.1 278.8 458.1 277.6C455 276.3 452.1 275.1 449.1 273.8L448.6 275.5C447.9 277.6 447.2 280 446.5 282.2C445.8 284.5 445.2 286.7 444.5 288.7C450.9 291.5 457.1 294.7 463.1 298.2L462.8 298.7Z" fill="#1C1923"></path><path d="M477.8 262.3C476.4 262.6 475.5 263.9 474.6 265.1C471.2 269.9 466.8 275.1 463.4 279.9L467.5 289C467.9 289.8 467.9 290.8 467.7 291.6L466.7 294.8C466.2 296.4 464.7 297.5 463 297.4C461.6 297.3 460.2 297.3 458.9 297.2C458.8 297.2 458.8 297.2 458.8 297.3C458.8 297.4 458.8 297.4 458.9 297.4C461.4 299 464.8 301.6 467.5 303.3C468 303.6 468.7 303.5 469 303C469.1 302.9 469.1 302.8 469.1 302.7L481 266.8C481.6 264.1 479.2 262 477.8 262.3Z" fill="#1C1923"></path><path d="M467.1 303.2L467.4 303.4C467.9 303.7 468.6 303.5 468.9 303C468.9 302.9 469 302.8 469 302.8L480.9 266.9C481.4 265.1 481.6 264.5 480.5 263.7L467.1 303.2Z" fill="#1C1923"></path><path d="M343.6 176.8C345.6 178.5 347.8 179.8 350.2 180.8C352.6 181.8 355.3 181.8 357.8 180.9C360.9 179.6 362.8 176.4 363.9 173.1C364.8 170.2 365.6 167.2 366.1 164.2C366.7 161.4 366 158.2 365.6 155.4C365.1 151.1 361.1 148.2 356.8 147.1C352.5 146 347.9 147.3 344.8 150.5C341.1 154.5 340.5 160.3 339.3 165.6C337.5 174 333.9 182 328.7 188.9C332.6 191.2 336.7 193.3 340.6 195.7C342.1 196.6 343.2 196.9 344.8 197.7C345 191.9 346.5 186.4 348.2 180.9" fill="white"></path><path d="M345 198H344.9C344.3 197.7 343.7 197.5 343.2 197.2C342.3 196.9 341.5 196.4 340.7 196C338.8 194.8 336.7 193.7 334.8 192.6C332.9 191.5 330.8 190.4 328.8 189.2C328.7 189.2 328.7 189.1 328.7 189C328.7 188.9 328.7 188.9 328.7 188.8C333.8 181.9 337.5 174 339.3 165.6C339.5 164.8 339.6 163.9 339.8 163.1C340.7 158.5 341.6 153.8 344.8 150.4C348 147.1 352.6 145.8 357 146.9C360.9 148 365.4 150.8 365.9 155.4C366 156 366.1 156.6 366.1 157.2C366.6 159.5 366.7 162 366.3 164.3C365.7 167.3 364.9 170.3 364 173.2C363.1 176 361.3 179.6 357.8 181.1C355.3 182.1 352.5 182 350 181C347.6 180 345.3 178.6 343.3 176.9C343.2 176.8 343.2 176.6 343.3 176.5C343.4 176.4 343.5 176.4 343.6 176.5C345.6 178.2 347.8 179.5 350.2 180.5C352.6 181.5 355.2 181.5 357.6 180.6C360.2 179.5 362.3 176.8 363.6 173C364.5 170.1 365.2 167.1 365.8 164.1C366.1 161.8 366 159.4 365.5 157.1C365.4 156.5 365.3 155.9 365.3 155.3C364.7 150.9 360.5 148.2 356.7 147.2C352.5 146.1 348 147.4 345 150.6C341.9 153.9 341 158.5 340.1 163C339.9 163.9 339.8 164.7 339.6 165.5C337.8 173.9 334.2 181.8 329.2 188.7C331.1 189.8 333 190.9 334.9 191.9C336.8 192.9 338.9 194.1 340.9 195.3C341.7 195.8 342.5 196.2 343.4 196.5C343.8 196.7 344.3 196.9 344.8 197.1C345 191.3 346.6 185.8 348.2 180.6C348.2 180.5 348.4 180.4 348.5 180.4C348.6 180.4 348.7 180.6 348.7 180.7C347 185.9 345.5 191.6 345.3 197.4C345.3 197.5 345.3 197.6 345.2 197.6C345.2 198 345.1 198 345 198Z" fill="#1C1923"></path><path d="M344.8 150.1C341.3 154.1 340.7 159.8 339.5 165C339.3 165.7 339.2 166.3 339 167C338.9 167.4 338.5 168.3 338.6 168.8C338.9 169.6 340.4 169.3 340.9 168.9C341.6 168.3 342 167.5 342.1 166.6C342.2 165.7 342.5 164.9 342.9 164C343.8 162.4 345.8 161.9 347.4 162.9C348.4 163.5 349.1 164.7 349 165.9C349 165.1 350.7 163.7 351.3 163.3C352.8 162.3 354.2 162.6 355.8 162.8C359.6 163.3 366.9 165.2 366.9 165.2C366.9 165.2 372.1 150.2 356.9 146.5C353.5 145.7 349.9 146.3 346.9 148.2C343.9 150.2 341 152.3 339.4 155.7C338.4 158.1 337.8 160.7 337.6 163.3C337.4 164.3 337.4 165.3 337.6 166.2C337.8 167.2 338.4 168 339.2 168.5" fill="#1C1923"></path><path d="M351.1 148.1C350.5 146.2 349.3 144.6 347.6 143.6C345.9 142.6 343.7 142.9 342.2 144.2C341 145.8 340.9 147.9 341.9 149.6C342.9 151.3 344.3 152.7 345.9 153.8" fill="#1C1923"></path><path d="M347.2 144.7C349.1 142.2 349.1 138.7 348 135.8C345.4 129.5 339 125.6 332.2 126.4C325.5 127.4 320.2 132.6 319 139.3C318.4 142.3 319 145.4 320.5 148.1C322.1 150.7 324.9 152.4 328 152.5C330.9 152.5 333.5 150.9 336.1 149.6C338.7 148.4 342 147.6 344.4 149.2" fill="#1C1923"></path><path d="M344.8 164.2C345.5 165 345.9 166 345.9 167L346.4 166.9C345.9 166.2 345.2 165.7 344.3 165.5C344 165.4 343.9 165.9 344.2 166C344.9 166.1 345.6 166.6 346 167.2C346.1 167.3 346.2 167.4 346.3 167.3C346.4 167.3 346.4 167.2 346.4 167.1C346.4 165.9 346 164.8 345.2 163.9C344.9 163.7 344.5 164 344.8 164.2Z" fill="#1C1923"></path><path d="M365 168.5L365.6 174.6C365.6 174.8 365.6 175 365.5 175.2C365.4 175.3 365.2 175.4 365 175.3H361.6" fill="white"></path><path d="M365 175.6L361.6 175.5V175L365 175.1C365.1 175.1 365.2 175.1 365.3 175C365.4 174.9 365.3 174.7 365.3 174.6L364.7 168.5L365.2 168.4L365.8 174.5C365.9 174.8 365.8 175.1 365.6 175.3C365.5 175.5 365.3 175.6 365 175.6Z" fill="#1C1923"></path><path d="M348.9 180.4C348.2 182.1 347.6 183.5 347 185.2C345.5 182.6 344.4 179.9 343.6 177C345.3 178.3 347 179.5 348.9 180.4Z" fill="#1C1923"></path><path d="M400 314.1C404.7 310.6 403.5 302.2 402.7 296.6C401 284.8 397.7 252.9 389 237.9C387.4 235.1 382.7 231.8 378.3 232.7C360.4 236.8 323.3 248.5 308.5 255.2C302.1 258.1 290.8 260.6 288.8 268.1C286.6 276 293.8 285.4 300.2 289C310.5 294.9 320.6 291.6 332.3 287.2C342.4 283.5 358.3 277.4 368.5 273.1C372.2 297.8 370.9 302.9 374.3 310.4C377.8 318.1 383.3 319.7 384.2 319.6L400 314.1Z" fill="white"></path><path d="M303.1 262.1C303.1 262.1 311.1 274.2 336.5 263.4C361.9 252.6 365 254.2 370.1 248C375.2 241.8 382.9 236.5 382.9 236.5C382.9 236.5 356.9 235.1 351.6 236.7C346.3 238.3 324.1 256 324.1 256L303.1 262.1Z" fill="#1C1923"></path><path d="M400.1 314.3L384.4 319.8C383.1 320 377.5 318.1 374.1 310.5C371.9 305.6 371 297.9 369.6 286.2C368.8 279.8 369.6 282 368.3 273.4C358.2 277.7 342.7 283.6 332.4 287.4C319.8 292.1 310.2 294.9 300 289.1C296.3 286.9 293.3 283.8 291 280.2C288.4 275.9 287.5 271.6 288.5 267.9C290.2 261.8 297.8 259 303.9 256.7C305.5 256.1 307.1 255.5 308.4 254.9C323.6 248 360.7 236.4 378.3 232.4C382.8 231.4 387.6 234.9 389.3 237.7C397.1 251.1 400.1 275.5 402.3 291.8C402.6 293.7 402.8 295.3 403 296.5C403.7 301.8 405 310.7 400.1 314.3ZM368.7 272.7V273C370 281.8 369.3 279.6 370 286.1C371.4 297.7 372.3 305.4 374.5 310.2C378 318 383.6 319.4 384.2 319.3L399.8 313.8C404.4 310.3 403.1 301.7 402.4 296.6C402.2 295.3 402 293.7 401.7 291.9C399.6 276.9 396.4 251.3 388.7 238C387.1 235.3 382.5 232 378.3 232.9C360.7 236.9 323.7 248.5 308.5 255.4C307.2 256 305.6 256.6 304 257.2C298 259.5 290.5 262.3 288.9 268.1C286.7 276 294.2 285.3 300.2 288.7C310.1 294.4 319.7 291.5 332.1 286.9C342.4 283.1 358.1 277.1 368.3 272.8L368.7 272.7Z" fill="#231F20"></path><path d="M345.2 197.9C345.6 213.8 343.9 238.7 343.1 254.7C327.9 266.1 309.9 263.6 291 261.6C300.9 235.7 313.4 210.9 328.2 187.5C333.4 191.2 340.1 194.2 345.2 197.9Z" fill="#8F67CA"></path><path d="M367 257.7C368.1 271.9 369.1 276.4 370.6 290.5C371.7 300.5 371.5 317.8 384.8 319.5C385 319.5 385 319.2 384.9 319.2C375.5 318 372.4 307.8 371.7 299.8C371.2 294.2 370.7 288.6 370 283C368.5 271.4 368.1 269.4 367.3 257.7C367.3 257.4 367 257.5 367 257.7Z" fill="#1C1923"></path><path d="M324.6 211.6C326 222 327.9 232.2 330.4 242.3C331.2 245.4 332.1 248.7 334.2 251.2C336.3 253.7 340.5 255.2 343.5 254C343.5 252.2 343.8 247.8 343.8 247.8C337.3 239.3 332.3 229.6 331 219C330.9 217 330.5 215.1 329.8 213.2C328.9 211.5 326.6 211.7 324.6 211.6Z" fill="#1C1923"></path><path d="M358.9 167.8L358.7 168.6C358.6 169.1 359 169.7 359.5 169.8C360 169.9 360.4 169.6 360.6 169.2L360.8 168.4C360.9 167.9 360.5 167.3 359.9 167.3C359.5 167.1 359 167.4 358.9 167.8Z" fill="#1C1923"></path><path d="M360.7 164.7C359.9 164.5 359 164.6 358.3 165.1C357.8 165.5 358.3 166.3 358.8 166C359.3 165.7 359.9 165.6 360.4 165.8C360.7 165.9 361 165.7 361 165.4C361.2 165 361 164.7 360.7 164.7Z" fill="#1C1923"></path><path d="M368.5 264.7C370.2 263.5 371.5 261.8 372.4 259.9C372.5 259.8 372.4 259.6 372.3 259.6C372.2 259.5 372 259.6 372 259.7C371.2 261.5 369.9 263.1 368.3 264.3C368.2 264.4 368.2 264.6 368.3 264.7C368.3 264.7 368.4 264.7 368.5 264.7Z" fill="#1C1923"></path><path d="M395.5 279.2C404.2 283.1 414.7 285.5 423.7 288.6C430.6 291 441 296.7 448 292.2C450.9 290.1 453.1 287.2 454.2 283.8C455.4 280.5 457.7 276.8 456.5 273.5C454.6 268.2 448.7 265.7 443.4 263.8L392.5 245.8" fill="white"></path><path d="M446.2 293.4C440.5 295.6 433.3 292.7 427.4 290.3C426.1 289.7 424.8 289.3 423.6 288.8C420.2 287.6 416.5 286.5 412.9 285.4C406.9 283.7 406 283.8 400.2 281.3L400.1 280.7C405.8 283.1 407 283.3 413 284.9C416.6 286 420.3 287.1 423.7 288.3C424.9 288.7 426.2 289.2 427.5 289.8C434 292.4 442.1 295.6 447.7 291.9C450.6 289.9 452.7 287 453.8 283.6C454.1 282.9 454.3 282.2 454.7 281.5C455.8 278.8 457 276 456.1 273.5C454.3 268.3 448.4 265.8 443.1 264L392.2 246L392.4 245.5L443.3 263.5C448.7 265.4 454.7 267.9 456.6 273.4C457.6 276.1 456.3 279 455.2 281.8C454.9 282.5 454.6 283.2 454.3 283.9C453.1 287.3 450.9 290.3 448 292.4C447.5 292.8 446.9 293.1 446.2 293.4Z" fill="#231F20"></path><path d="M383.1 233.4C367.4 240.3 369.5 240.2 353.4 246.2C348.5 248 342.6 249.7 338.4 246.6C335.7 244.7 334.5 241.3 333.4 238.1C330.6 229.7 327.8 221.2 324.9 212.8C322 204.7 331.5 197.7 338.4 200.9C343.1 203 349.1 221.1 350.4 226.1C363.1 222.2 362.9 220.9 375.6 217C378.3 222.3 381.2 227.7 383.1 233.4Z" fill="#8F67CA"></path><path d="M344.1 248.5C342 248.6 340 248 338.2 246.8C335.6 244.9 334.3 241.8 333.1 238.2C332.2 235.4 331.2 232.6 330.3 229.8C328.5 224.3 326.5 218.6 324.6 212.9C323.3 209.3 324.4 205.3 327.3 202.8C330.3 199.9 334.6 199.1 338.5 200.6C343.3 202.8 349.2 220.6 350.5 225.7C356.8 223.7 363.3 221.1 369.6 218.6C375.9 216 369 218.7 375.4 216.7L375.6 216.6L376.6 218.5C379.2 223.2 381.4 228.1 383.3 233.2L383.4 233.4L379.1 235.3C365.4 241.4 368.2 240.8 353.5 246.2C350.5 247.6 347.3 248.3 344.1 248.5ZM334.7 200.4C332.1 200.5 329.6 201.5 327.7 203.2C325 205.5 323.9 209.3 325.1 212.7C327.1 218.3 329 224 330.8 229.6C331.7 232.4 332.7 235.2 333.6 238C334.7 241.5 335.9 244.5 338.5 246.3C342.5 249.2 348.2 247.7 353.2 245.8C367.9 240.4 365.1 240.9 378.8 234.9L382.7 233.2C380.8 228.2 378.6 223.4 376.1 218.8L375.3 217.2C369 219.2 376.1 216.5 369.7 219C363.3 221.5 356.7 224.3 350.3 226.2L350.1 226.3L350 226C348.5 219.9 342.5 202.9 338.2 201C337.2 200.6 336 200.4 334.7 200.4Z" fill="#1C1923"></path><path d="M347.9 227.7L353.2 225.4C353.5 225.3 353.2 224.9 353 225L347.6 227.3C347.3 227.4 347.6 227.8 347.9 227.7Z" fill="#1C1923"></path><path d="M346.3 199C343.5 191.8 338.3 183.8 331.7 179.9C330.3 182.5 328.4 186.2 327 188.8C333.3 192 339.9 195.7 346.3 199Z" fill="white"></path><path d="M346.7 199.5L346.1 199.2C342.9 197.6 339.6 195.8 336.4 194.1C333.2 192.4 329.9 190.6 326.7 189L326.5 188.9L326.6 188.7C327.3 187.4 328.1 185.8 329 184.2C329.9 182.6 330.7 181.1 331.4 179.7L331.5 179.5L331.7 179.6C338.6 183.7 343.8 192.3 346.4 198.9L346.7 199.5ZM327.3 188.6C330.4 190.2 333.6 191.9 336.7 193.6C339.8 195.3 342.8 196.9 345.8 198.4C343.2 192 338.3 184.1 331.8 180.1C331.1 181.4 330.3 182.9 329.6 184.3C328.8 185.9 328 187.4 327.3 188.6Z" fill="#1C1923"></path><path d="M356.1 173.7C356.7 174.7 357.6 175.5 358.8 175.9C359.1 176 359.2 175.5 358.9 175.4C357.9 175.1 357.1 174.4 356.6 173.5C356.5 173.1 356 173.4 356.1 173.7Z" fill="#1C1923"></path><g opacity="0.47"><path opacity="0.47" d="M354.5 175.3C356.212 175.3 357.6 173.912 357.6 172.2C357.6 170.488 356.212 169.1 354.5 169.1C352.788 169.1 351.4 170.488 351.4 172.2C351.4 173.912 352.788 175.3 354.5 175.3Z" fill="#EF5961"></path></g><path d="M414.7 286C406.2 273.5 398.5 260.5 393.2 246.3L401.8 281.6C406.1 283.6 410.3 284.4 414.7 286Z" fill="#1C1923"></path><path d="M409 233.7L383.4 233.4C383.3 233.4 383.2 233.3 383.2 233.2C383.2 233.1 383.3 232.9 383.4 232.9L408.9 233.2L430.1 187.5C430.2 187.4 430.3 187.3 430.4 187.4C430.5 187.5 430.5 187.6 430.5 187.7L409.3 233.5C409.2 233.6 409.1 233.7 409 233.7Z" fill="#1C1923"></path><path d="M353.5 220.7C353.4 220.7 353.3 220.6 353.3 220.6C351.7 217.6 350.4 214.5 349.4 211.2C348.4 208 347.1 204.9 345.5 201.9C345.4 201.8 345.4 201.6 345.5 201.5C345.6 201.4 345.8 201.5 345.8 201.6C347.4 204.6 348.7 207.7 349.7 211C350.7 214.1 352 217.2 353.5 220.1C358.2 218.3 363.5 215.8 368.5 213.4C373.5 211 365.4 213.7 370.2 211.9C370.3 211.9 370.3 211.9 370.4 211.9C370.5 211.9 370.5 212 370.5 212L372.5 217.7C372.6 217.8 372.5 218 372.4 218C372.3 218 372.1 218 372.1 217.8L370.2 212.3C365.5 214.1 373.9 211.3 368.8 213.7C363.7 216.1 358.3 218.7 353.5 220.5V220.7Z" fill="#1C1923"></path><path d="M376.2 235.8C376.1 235.8 376 235.7 376 235.7L370.2 223.6C370.1 223.5 370.2 223.3 370.3 223.3C370.4 223.2 370.6 223.3 370.6 223.4L376.4 235.5C376.5 235.6 376.4 235.8 376.3 235.8C376.2 235.8 376.2 235.8 376.2 235.8Z" fill="#1C1923"></path><path d="M378.5 232.4C378.1 232.4 377.8 232.2 377.6 231.9C377.2 231.4 377.3 230.7 377.8 230.3C378.3 229.9 379 230 379.4 230.5V230.6V230.7C379.7 231.3 379.5 232 379 232.3C378.8 232.3 378.7 232.4 378.5 232.4ZM378.5 230.7H378.4C378.1 230.7 377.8 231 377.8 231.3C377.8 231.5 377.9 231.6 378 231.7C378.1 231.9 378.3 232 378.5 232C378.9 231.9 379.1 231.5 379 231.1C379 231.1 379 231 378.9 231C378.9 230.8 378.7 230.7 378.5 230.7Z" fill="#1C1923"></path><path d="M387.9 222.7C388.8 222.1 390.5 220.8 391.7 221.4L393.1 223.3C393.1 223.7 393.1 224.1 393 224.4C392.9 225 392.8 225.5 392.6 226.1C392.2 227.3 391.5 228.3 390.7 229.2C390.4 229.5 389.8 230.3 389.3 230.3L386.6 228.5C386.8 227.8 387.2 227.2 387.7 226.7C387.9 226.5 387.6 226.1 387.4 226.3C386.4 227.5 385.2 229.8 387.1 230.9C389 232 391.1 229.9 392 228.4C393.1 226.8 394.4 223.7 393.2 221.8C392 219.9 389.2 221.2 387.7 222.2C387.3 222.4 387.6 222.9 387.9 222.7Z" fill="#1C1923"></path><path d="M376.1 218C379.2 216.7 382.4 215.6 385.6 214.6C389 213.6 393.5 211.8 396.8 213.8C400.1 215.8 401.1 219.8 400.8 223.3C400.6 225.1 400.3 226.8 399.8 228.5C399.6 229.4 399.3 230.3 398.9 231.1C398.4 231.9 396.3 233.9 395.3 232.4C395.1 232.1 394.7 232.4 394.9 232.6C396.2 234.6 398.9 232.3 399.6 230.8C400.5 228.7 401 226.4 401.2 224.1C401.5 222 401.3 219.7 400.6 217.7C399.4 214.1 395.7 211.9 391.9 212.5C386.5 213.1 380.9 215.4 375.9 217.4C375.7 217.6 375.9 218.1 376.1 218Z" fill="#1C1923"></path><path d="M400.8 219.7C401.8 222.1 402.7 224.6 403.4 227.2C403.6 227.9 404.5 230 404.2 230.6L402.6 231.8L401.7 231L400.3 229.6C400.2 229.5 400 229.5 399.9 229.6C399.8 229.7 399.8 229.8 399.9 229.9C400.8 230.8 404.1 234.8 404.7 231.6C405 230.2 404.2 228.3 403.8 227C403.1 224.4 402.2 221.9 401.2 219.5C401.2 219.2 400.7 219.4 400.8 219.7Z" fill="#1C1923"></path><path d="M381.1 228C383.6 228.6 387.1 227.8 388.8 225.8C389 225.6 388.7 225.2 388.5 225.4C387 227.3 383.6 228 381.3 227.5C381.2 227.5 381 227.6 381 227.7C380.9 227.9 381 228 381.1 228Z" fill="#1C1923"></path><path d="M393.1 233.4C392.9 233.4 392.8 233.4 392.6 233.3C391.6 232.9 391 232 391 231C391 230.1 391.2 229.1 391.6 228.3C391.7 228.2 391.8 228.1 391.9 228.2C392 228.2 392.1 228.4 392 228.5C391.6 229.3 391.4 230.1 391.4 231C391.4 231.8 391.9 232.5 392.6 232.9C393.2 233 393.9 232.8 394.3 232.4C394.8 231.9 395.1 231.3 395.4 230.7C396.7 227.5 397.6 224.3 398.2 220.9C398.2 220.8 398.4 220.7 398.5 220.7C398.6 220.7 398.7 220.9 398.7 221C398.1 224.4 397.2 227.7 395.9 230.9C395.6 231.6 395.2 232.2 394.7 232.8C394.3 233.1 393.7 233.4 393.1 233.4Z" fill="#1C1923"></path><path d="M349.4 146.9C356.4 143.4 365 146.2 368.5 153.2C369.8 155.8 370.3 158.8 369.8 161.8C369.6 163 369 164.4 367.8 164.5C367.6 164.5 367.4 164.5 367.3 164.4C367.1 164.2 367 163.9 367 163.6C367 162.2 367.7 160.9 367.9 159.6C368.2 157 366.7 154.7 365.2 152.6C363.4 150.2 361.2 147.7 358.2 147" fill="#282E3B"></path><path d="M350.4 148.7C356.4 145.7 363.7 148.2 366.7 154.2C366.9 154.6 367.1 155 367.2 155.4C367.4 155.8 368.4 162.7 368 162.6L369.4 164C368.8 162.2 370.2 159.9 370 157.9C369.6 155.8 368.7 153.9 367.4 152.2C365.2 149 362.6 146.3 358.8 145.2C356.3 144.5 355.3 148.3 357.7 149C361.1 150 365 154.2 365.8 157.7C366.4 160.1 363.8 163.9 366 165.9C369.8 169.5 372.1 162 372 159.5C371.7 147.3 359.1 140.5 348.4 145.3C346.1 146.2 348.1 149.7 350.4 148.7Z" fill="#1C1923"></path><path d="M370.8 213.7C370.7 213.7 370.6 213.6 370.6 213.6C370.5 213.5 370.6 213.3 370.7 213.3C374 211.7 377.5 210.3 381.1 209.3C383.2 208.6 385.5 208.3 387.8 208.6C389.9 209 392.3 210.4 392.9 212.7C392.9 212.8 392.9 213 392.7 213C392.6 213 392.4 213 392.4 212.8C391.8 210.7 389.6 209.3 387.7 209C385.5 208.8 383.3 209 381.3 209.7C377.8 210.7 374.3 212.1 371 213.7C370.8 213.7 370.8 213.7 370.8 213.7Z" fill="#1C1923"></path><path d="M377.5 236.8H406.7L409.2 233.3H383.8L376.6 236.5L377.5 236.8Z" fill="#1C1923"></path><path d="M406.7 237H377.5L376.5 236.7C376.4 236.7 376.3 236.6 376.3 236.5C376.3 236.4 376.4 236.3 376.4 236.3L383.6 233.1H383.7H409.2C409.3 233.1 409.4 233.2 409.4 233.4C409.4 233.5 409.4 233.5 409.4 233.5L406.8 237C406.8 237 406.7 237 406.7 237ZM377.6 236.5H406.6L408.8 233.5H383.9L377.4 236.4L377.6 236.5Z" fill="#1C1923"></path><path d="M354.3 219.8C353 220.1 352 221.1 351.7 222.4C351.6 222.7 352.1 222.8 352.2 222.5C352.5 221.4 353.4 220.5 354.5 220.3C354.7 220.2 354.6 219.8 354.3 219.8Z" fill="#1C1923"></path><path d="M362.5 215.6L364.2 220.8C364.3 221.1 364.8 221 364.7 220.7L363 215.5C362.9 215.2 362.4 215.3 362.5 215.6Z" fill="#1C1923"></path><path d="M306.7 0C336.6 0 360.8 24.2 360.8 54.1C360.8 81.6 340.3 104.3 313.8 107.7C311.5 108 304 130.4 304 130.4C301.6 119.1 301.7 108 299.3 107.6C272.9 104 252.6 81.4 252.6 54C252.6 24.2 276.8 0 306.7 0Z" fill="#39DEB2"></path><path d="M306.8 27.5001C293.1 28.3001 282.5 40.0001 283.3 53.7001C283.5 57.1001 284.4 60.5001 285.9 63.5001L283.3 76.2001C283.2 76.7001 283.6 77.2001 284.1 77.3001C284.2 77.3001 284.4 77.3001 284.5 77.3001L297.2 74.3001C309.5 80.4001 324.4 75.5001 330.5 63.2001C336.6 50.9001 331.7 36.0001 319.4 29.9001C315.6 28.0001 311.3 27.1001 307 27.3001L306.8 27.5001ZM321.8 66.0001C315.9 71.9001 306.9 73.4001 299.4 69.7001L297.7 68.8001L290 70.6001L291.6 62.8001L290.8 61.1001C285.9 51.5001 289.7 39.8001 299.3 35.0001C308.9 30.1001 320.6 33.9001 325.4 43.5001C329.2 50.9001 327.7 60.0001 321.8 66.0001Z" fill="white"></path><path d="M320.1 57.6L315.3 56.2C314.7 56 314 56.2 313.5 56.7L312.4 57.9C311.9 58.4 311.2 58.6 310.5 58.3C307.2 56.5 304.3 54 302.1 51C301.7 50.4 301.7 49.6 302.1 49.1L303.1 47.7C303.5 47.2 303.6 46.5 303.3 45.9L301.3 41.3C300.9 40.4 299.9 40 299 40.4C298.8 40.5 298.7 40.6 298.5 40.7C296.9 41.9 295.8 43.6 295.4 45.5C295.1 48.8 296.5 53.1 302 58.2C308.3 64.1 313.4 64.9 316.6 64.1C318.4 63.4 319.9 62.1 320.8 60.3C321.4 59.5 321.2 58.3 320.4 57.8C320.2 57.7 320.2 57.6 320.1 57.6Z" fill="white"></path><path d="M105.4 266.8C103.7 267.6 102.2 268.7 101 270.2C100.4 271 99.4 269.9 100 269.2C101.3 267.6 102.9 266.4 104.7 265.6C105.5 265.1 106.2 266.4 105.4 266.8Z" fill="#1C1923"></path><path d="M107.5 270.6C105.6 271.5 103.9 272.7 102.5 274.3C101.9 275 100.8 274 101.5 273.3C102.9 271.6 104.7 270.3 106.7 269.3C107.6 268.9 108.3 270.2 107.5 270.6Z" fill="#1C1923"></path><path d="M253 289.1L191.4 241.2C176 260.5 161.5 274.3 142.5 291C132.9 290.1 123.8 289.9 114.2 289.8C116.8 286 151.2 237.9 168.4 213.2C172.7 207 181 197.4 189.8 201.9C223.5 218.8 254 233.8 287.7 250.7" fill="#455166"></path><path d="M204.5 209.1C204.3 209.4 199.1 209.1 202.1 215.7C205.1 222.3 209.9 224.8 211.3 229.5C212.7 234.2 211.1 235.8 211.6 237.1C212.1 238.4 215.2 244.4 219.9 247.1C224.6 249.8 244.2 256.4 244.9 256.2C245.6 255.9 247.9 259.2 247.7 259.6C247.6 260 243.9 266.1 244.9 266.9C245.9 267.7 247.9 271.6 249.5 273.1C251.1 274.6 263 279.6 264.6 280.4C266.2 281.2 275 283.7 278.8 284.6C282.6 285.5 290.5 285.4 293.1 283.1C295.7 280.8 284.1 271 281.8 268.6C279.4 266.1 204.5 209.1 204.5 209.1Z" fill="#1C1923"></path><path d="M142.6 291.3C161.9 274.2 176.1 260.7 191.4 241.5L252.8 289.3L253.1 288.9L191.3 240.9L191.1 241.1C175.8 260.3 161.6 273.9 142.3 290.9C133.9 290.1 125.4 289.8 114.6 289.7C115.4 288.6 117.1 286.2 119.4 282.9C130 268 154.8 233.2 168.5 213.4C177.8 200 185.1 199.9 189.6 202.1C205.5 210.1 221 217.8 235.9 225.2C252.5 233.5 269.7 242 287.5 250.9L287.7 250.4C269.9 241.5 252.8 232.9 236.1 224.7C221.2 217.3 205.7 209.6 189.8 201.6C185.1 199.3 177.5 199.3 168.1 213C154.4 232.8 129.6 267.6 119 282.4C116.3 286.2 114.4 288.8 113.9 289.6L113.6 290H114.1C125.2 290.2 134 290.6 142.6 291.3Z" fill="#1C1923"></path><path d="M113.7 276.2C110.5 284.5 110.5 292.7 115.9 299.7C162.1 302 217.2 300.9 263.5 300.1C270.4 300 277.8 299.7 283.5 295.9C292.3 290.1 294.4 278.4 295.8 268C291.1 261.7 283.8 257 275.9 256.5C268 256 260.2 257.6 252.5 259.1C210 267.7 157 274.1 113.7 276.2Z" fill="#455166"></path><path d="M292.5 283.5C292.8 282.7 293 282 293.2 281.2C291.7 277.5 283.6 270.6 281.7 268.6C281.1 267.9 275.1 263.2 266.7 256.8C261.9 257.3 257.2 258.3 252.5 259.2C250.8 259.5 249 259.9 247.3 260.2C246.4 261.9 244 266.1 244.8 266.8C245.8 267.6 247.8 271.5 249.4 273C251 274.5 262.9 279.5 264.5 280.3C266.1 281.1 274.9 283.6 278.7 284.5C282.2 285.4 289.4 285.3 292.5 283.5Z" fill="#1C1923"></path><path d="M116 300C115.9 300 115.9 300 115.8 299.9C110.8 293.4 110 285.4 113.5 276.1C113.5 276 113.6 275.9 113.7 275.9C157.4 273.8 210.6 267.2 252.5 258.8L253.4 258.6C260.8 257.1 268.4 255.6 275.9 256.1C283.4 256.6 290.9 261 295.9 267.7C295.9 267.8 295.9 267.8 295.9 267.9C294.5 278.5 292.3 290.2 283.5 296C277.9 299.7 271 300.1 263.3 300.3L255.2 300.4C231.5 300.8 206.1 301.2 181 301.2C158.7 301.4 136.4 301 116 300ZM275.9 256.7C268.4 256.2 260.8 257.7 253.5 259.2L252.6 259.4C210.7 267.8 157.6 274.4 113.9 276.5C110.5 285.5 111.3 293.2 116.1 299.6C159.6 301.8 210.5 300.9 255.4 300.1L263.5 300C271.1 299.9 277.9 299.5 283.4 295.8C292 290.1 294.2 278.6 295.5 268.1C290.6 261.5 283.4 257.3 275.9 256.7Z" fill="#1C1923"></path><path d="M266.6 156.6C266.7 153.5 268.5 151.8 271.2 150.6C274.9 148.9 283.9 146.5 287.6 149.5C290.1 151.6 290 152.4 290.9 155.5C292.9 162.6 298.1 191.8 298.9 194.4C292.6 198.3 286.5 202.4 280.6 206.8C282 199.4 282.3 191.9 281.5 184.4C279.8 184.7 278 184.5 276.4 183.9C272.9 182.4 271.1 178.6 269.9 175C268.1 169.2 266.4 162.6 266.6 156.6Z" fill="white"></path><path d="M280.5 207C280.4 206.9 280.4 206.8 280.4 206.8C281.7 199.5 282.1 192.1 281.3 184.7C279.6 185 277.9 184.8 276.4 184.1C272.6 182.5 270.8 178.1 269.8 175C267.4 167.7 266.3 161.6 266.5 156.6C266.6 153.7 268.1 151.8 271.3 150.3C275.3 148.5 284.3 146.2 287.9 149.2C289.6 150.3 290.7 152.1 291 154.1C291.1 154.5 291.2 154.9 291.3 155.3C292.5 159.6 294.9 171.7 296.7 181.5C297.9 187.8 298.9 193.2 299.3 194.2C299.3 194.3 299.3 194.4 299.2 194.5C292.9 198.3 286.8 202.5 280.9 206.9H280.8C280.6 207 280.6 207 280.5 207ZM298.7 194.2C298.3 192.8 297.4 187.8 296.2 181.6C294.3 171.8 292 159.7 290.8 155.5C290.7 155 290.6 154.6 290.5 154.3C289.9 152.2 289.7 151.4 287.6 149.7C284.1 146.9 275.4 149.1 271.5 150.9C268.5 152.3 267.1 154.1 267 156.7C266.8 161.7 267.9 167.6 270.3 174.9C271.3 177.9 273.1 182.1 276.6 183.7C278.2 184.3 279.9 184.5 281.5 184.2C281.6 184.2 281.6 184.2 281.7 184.2C281.8 184.2 281.8 184.3 281.8 184.4C282.6 191.7 282.3 199 281 206.2C286.6 201.9 292.6 197.9 298.7 194.2Z" fill="#1C1923"></path><path d="M248.4 265.5C262.8 277.3 285.6 283.1 300.8 283.2C303.7 266.7 306.6 250.1 306.7 233.3C306.8 216.5 306.2 199.6 298.2 184.8C293.2 188.3 286.3 192.3 281.3 195.7C281.3 196.9 258.4 245 248.4 265.5Z" fill="#FDB527"></path><path d="M288.3 145.7C286 145.5 283.7 146.7 281.5 147.5C278.5 148.6 275.3 149.1 272.1 148.8C267.9 148.4 261.2 147.3 259.4 152.6C258.8 154.7 259.2 157.1 260.6 158.8C262 160.5 264 161.7 266.1 162.1C268.6 162.7 271.3 162.3 273.5 161.1C275.2 160.1 276.6 158.7 278.4 157.9C280.2 157.1 282.6 157.1 283.8 158.7C286.1 161.6 282.7 165.9 287.1 167.7C287.8 168 288.9 168 289.2 167.3C289.8 166.3 288 165.1 289.4 164.5C289.8 164.4 290.2 164.3 290.5 164.3L293.6 164.1C294.3 164.1 295 163.9 295.6 163.5C296.2 162.7 296.3 161.7 295.9 160.8C294.5 156.2 294.2 143.9 286.5 145.8C282.7 146.8 279.4 147.7 275.4 147.2C273.5 147 271.7 146.5 269.9 146.4C268 146.2 266.2 146.7 264.6 147.7C263 148.8 262.3 150.8 262.9 152.6" fill="#1C1923"></path><path d="M221.4 195.6C220.9 195.6 220.5 195.6 220 195.6L207.7 200.3C207.3 200.5 207.1 200.9 207.2 201.3L215.3 225.3L218.6 226L221.6 195.9C221.7 195.7 221.6 195.6 221.4 195.6Z" fill="#1C1923"></path><path d="M231.2 221.1L221.7 195.7L209.7 201L218.4 226.4L231.2 221.1Z" fill="#1C1923"></path><path d="M211.9 203.3L221.1 199.4C221.5 199.2 221.9 199.4 222 199.8L229.8 219.8C229.9 220.1 229.8 220.5 229.4 220.6L219.5 224.5C219.2 224.6 218.8 224.5 218.6 224.1L211.5 204.1C211.4 203.8 211.6 203.4 211.9 203.3Z" fill="white"></path><path d="M218.9 224.6C218.7 224.5 218.5 224.3 218.5 224.1L211.3 203.1C211.2 202.7 211.4 202.3 211.7 202.1L221 198C221 198 221 198 221.1 198C221.5 197.8 222 198.1 222.1 198.5L230 219.5C230.1 219.9 230 220.3 229.6 220.5L219.6 224.6C219.5 224.6 219.4 224.7 219.3 224.7C219.1 224.7 219 224.7 218.9 224.6ZM221.1 198.2L211.8 202.3C211.5 202.4 209.9 203.6 210 203.9L218.7 224.1C218.8 224.3 218.9 224.4 219 224.4C219.1 224.5 219.3 224.5 219.5 224.4L229.5 220.3C229.8 220.2 229.9 219.8 229.8 219.5L221.9 198.5C221.8 198.3 221.7 198.2 221.6 198.2C221.5 198.2 221.4 198.2 221.4 198.2C221.3 198.2 221.2 198.2 221.1 198.2Z" fill="#1C1923"></path><path d="M217.6 198.8L213.8 200.4C213.6 200.5 213.6 200.7 213.6 200.8C213.7 201 213.9 201 214 201L217.8 199.4C218 199.3 218 199.1 218 199C218 198.8 217.8 198.7 217.6 198.8Z" fill="white"></path><path d="M268.9 165.6C268.8 168.7 268.3 171.8 267.4 174.8C267.3 175.1 267.4 175.4 267.6 175.7C267.8 175.9 268.1 176 268.4 176C269.6 176.1 270.9 176 272.1 175.8" fill="white"></path><path d="M269.3 176.3C270.3 176.3 271.2 176.2 272.2 176C272.3 176 272.4 175.8 272.4 175.7C272.4 175.6 272.2 175.5 272.1 175.5C270.9 175.7 269.7 175.8 268.4 175.7C268.2 175.7 267.9 175.6 267.8 175.5C267.7 175.3 267.6 175.1 267.7 174.9V174.7C268.6 171.7 269.1 168.7 269.2 165.6C269.2 165.5 269.1 165.4 269 165.4C268.9 165.4 268.8 165.5 268.8 165.6C268.7 168.6 268.2 171.7 267.3 174.6V174.8C267.2 175.2 267.3 175.6 267.5 175.9C267.8 176.2 268.1 176.3 268.5 176.3H269.3Z" fill="#1C1923"></path><path d="M291.1 158.4C291 155.4 290.4 152.5 289.3 149.8C288.1 147.1 285.7 144.8 282.7 144.4C280.1 144.1 277.6 145.3 276.2 147.5C277.7 147.4 279.3 147.3 280.9 147.2C283.8 151.2 285.4 156 285.5 160.9" fill="white"></path><path d="M285.5 161.1C285.6 161.1 285.7 161 285.7 160.8C285.6 155.8 284 151 281.1 147C281.1 146.9 281 146.9 280.9 146.9C280.1 146.9 279.3 147 278.5 147.1L276.7 147.2C278.1 145.3 280.3 144.3 282.7 144.6C285.8 145 288 147.6 289.1 149.9C290.2 152.6 290.8 155.5 290.9 158.5C290.9 158.6 291 158.7 291.2 158.7C291.3 158.7 291.4 158.6 291.4 158.4C291.3 155.4 290.7 152.5 289.5 149.7C288.1 146.6 285.5 144.5 282.7 144.2C280 143.9 277.4 145.2 276 147.4C275.9 147.5 275.9 147.6 276 147.7C276.1 147.8 276.1 147.8 276.2 147.8L278.5 147.6L280.7 147.5C283.5 151.4 285 156.1 285.2 160.9C285.3 161 285.4 161.1 285.5 161.1Z" fill="#1C1923"></path><path d="M290.9 173.2C295.097 173.2 298.5 169.797 298.5 165.6C298.5 161.403 295.097 158 290.9 158C286.703 158 283.3 161.403 283.3 165.6C283.3 169.797 286.703 173.2 290.9 173.2Z" fill="white"></path><path d="M283.1 165.6C283.1 161.3 286.6 157.8 290.9 157.8C295.2 157.8 298.7 161.3 298.7 165.6C298.7 169.9 295.2 173.4 290.9 173.4C286.6 173.4 283.1 169.9 283.1 165.6ZM283.6 165.6C283.6 169.7 286.9 172.9 290.9 172.9C294.9 172.9 298.2 169.6 298.2 165.6C298.2 161.6 294.9 158.3 290.9 158.3C286.9 158.3 283.6 161.6 283.6 165.6Z" fill="#1C1923"></path><path d="M113.8 276.6C111.2 284.3 112 292.8 116.1 299.8C116.2 300 116.1 300.2 116 300.3C115.9 300.4 115.6 300.3 115.5 300.2C111.3 293 110.5 284.3 113.1 276.4C113.2 276 113.9 276.2 113.8 276.6Z" fill="#1C1923"></path><path d="M219.4 232.2L206.4 216.3C206.2 212.2 206.5 208.1 207.1 204.1C207.2 203.2 207.7 202.2 208.5 202.3C209.4 206 211 209.9 211.9 213.6C213.8 214.5 215.9 215.1 217.8 216C217.2 214 216.8 211.9 216.2 210C216 209.4 215.9 208.8 215.8 208.2C215.8 207.6 216.1 207 216.7 206.7C217.5 206.4 218.3 206.6 218.8 207.3C219.3 207.9 219.6 208.7 219.8 209.4C221.1 213.3 222.9 217 225.3 220.4C224.2 224.9 221.6 227.9 219.4 232.2Z" fill="white"></path><path d="M219.2 232.3L206.2 216.4C206.2 216.4 206.1 216.3 206.2 216.3C206 212.2 206.3 208.1 206.9 204C207 203.3 207.3 202.7 207.8 202.2C208 202 208.3 202 208.6 202C208.7 202 208.8 202.1 208.8 202.2C209.3 204.1 209.9 206 210.5 207.8C211.1 209.6 211.7 211.5 212.2 213.4C213.1 213.8 214.2 214.2 215 214.5C215.8 214.8 216.6 215.1 217.5 215.5C217.3 214.7 217.1 213.8 216.9 213C216.7 212 216.4 211 216.1 210C215.9 209.4 215.7 208.7 215.7 208.1C215.7 207.4 216.1 206.7 216.7 206.3C217.6 205.9 218.6 206.2 219.1 206.9C219.6 207.5 219.9 208.3 220.1 209V209.1C221.4 213 223.2 216.7 225.5 220C225.5 220.1 225.5 220.1 225.5 220.2C224.7 223 223.5 225.8 221.8 228.2C221 229.4 220.3 230.7 219.6 232.1C219.6 232.2 219.5 232.2 219.4 232.2C219.3 232.4 219.3 232.4 219.2 232.3ZM219.6 209.5V209.4C219.4 208.7 219.1 208 218.7 207.4C218.4 206.9 217.9 206.7 217.4 206.7C216.6 206.8 216.1 207.4 216.2 208.2C216.2 208.8 216.3 209.4 216.5 209.9C216.8 210.9 217.1 211.9 217.3 212.9C217.5 213.9 217.8 214.9 218.1 215.9C218.1 216 218.1 216.1 218 216.2C217.9 216.2 217.8 216.2 217.7 216.2C216.8 215.8 215.8 215.4 214.8 215C213.8 214.6 212.8 214.2 211.8 213.8C211.7 213.8 211.7 213.7 211.7 213.6C211.2 211.7 210.6 209.8 210 208C209.4 206.2 208.8 204.3 208.3 202.5C208.2 202.5 208.1 202.5 208 202.6C207.6 203 207.4 203.5 207.3 204.1C206.7 208.1 206.4 212.2 206.6 216.2L219.4 231.7C220.1 230.4 220.8 229.2 221.5 228.1C223.1 225.7 224.3 223.1 225.1 220.3C222.7 217 220.9 213.4 219.6 209.5Z" fill="#1C1923"></path><path d="M162.6 271.7C174.2 260.5 185 248.5 195.1 235.9C195.3 235.6 195.7 236 195.5 236.3C185.4 248.9 174.6 260.9 163 272.1C162.9 272.2 162.7 272.2 162.6 272C162.5 272 162.5 271.8 162.6 271.7Z" fill="#1C1923"></path><path d="M123.7 285.2C123 290.2 123.9 295.3 126.4 299.8C126.5 299.9 126.4 300.1 126.3 300.2C126.3 300.2 126.2 300.2 126.1 300.2C122.7 300.2 119.4 300.4 116 300.4C115.8 300.4 115.7 300.3 115.7 300.1C115.7 299.9 115.8 299.8 116 299.8C118 299.8 120 299.7 121.9 299.7C122.3 299.7 125.1 299.9 125.3 299.6C125.6 299.1 124.6 297.6 124.4 297.2C122.9 293.3 122.4 289.1 123 285C123.1 284.7 123.7 284.8 123.7 285.2Z" fill="#1C1923"></path><path d="M124.6 275.9L162.4 272.7L167.5 267.6L130.6 266.8L124.6 275.9Z" fill="#1C1923"></path><path d="M280.8 196.8C274.7 208.9 262.1 229.3 260.7 229.7C259.6 229.9 258.4 229.7 257.4 229.2C246.4 225.1 235.5 221 224.4 216.9C221.8 223.3 218.9 229.6 215.6 235.7C223.7 239.7 265.3 260.6 272.7 255.9C284.5 248.4 291.7 234.1 296.2 220.9" fill="#FDB527"></path><g opacity="0.47"><path opacity="0.47" d="M279.3 175.3C281.012 175.3 282.4 173.912 282.4 172.2C282.4 170.488 281.012 169.1 279.3 169.1C277.588 169.1 276.2 170.488 276.2 172.2C276.2 173.912 277.588 175.3 279.3 175.3Z" fill="#EF5961"></path></g><path d="M282.1 189.9C284.6 186.8 287.1 183.6 289.6 180.5C286.9 181.6 284.2 182.9 281.6 184.3C281.7 186.2 281.9 188 282.1 189.9Z" fill="#1C1923"></path><path d="M275 166.5C275 166.7 275 166.6 275.1 166.7L273.4 167.1C273.5 166.9 273.5 166.7 273.4 166.6C273.2 166.1 273.4 165.5 273.9 165.3C274.3 165.1 274.8 165.2 275.1 165.6C275.4 166.2 275.5 167 275.3 167.7C275.2 168.2 274.6 168.5 274.1 168.4C273.9 168.4 273.8 168.3 273.7 168.1C273.1 167.6 272.9 166.7 273.1 166C273.3 165.5 273.9 165.2 274.4 165.4C274.8 165.5 275.1 166 275 166.5Z" fill="#1C1923"></path><path d="M274.5 161.7C275 161.7 275.5 161.9 275.8 162.3C276.2 162.8 275.5 163.5 275.1 163C275 162.8 274.7 162.7 274.5 162.7C274.2 162.7 274 162.5 274 162.2C274 161.9 274.2 161.7 274.5 161.7Z" fill="#1C1923"></path><path d="M279 173.5C278.7 175.5 277.3 177.2 275.3 177.8C275.2 177.8 275 177.7 275 177.6C275 177.5 275 177.4 275.2 177.3C277 176.7 278.3 175.2 278.5 173.4C278.6 173 279.1 173.2 279 173.5Z" fill="#1C1923"></path><path d="M109.8 279.6C107 285.7 106.2 292.6 107.5 299.2C107.1 299.2 106.4 299.6 106 299.6H97C94.6 285.7 91.4 271.9 87.3 258.4C86.4 255.6 89.5 252 92.4 252.3C95.3 252.6 97.7 254.8 99.2 257.3C100.7 259.8 101.4 262.7 102.4 265.4C104.3 270.5 106.1 275.6 109.8 279.6Z" fill="#1C1923"></path><path d="M233.4 220.8L237.5 210.5L273.8 217.3L265 234.3L233.4 220.8Z" fill="#FDB527"></path><path d="M298.3 185.3L296.8 179.8C293.1 181.3 289.6 183.4 286.4 185.9C283.4 188.5 281.3 192.2 281.5 196.1L298.3 185.3Z" fill="white"></path><path d="M281.4 196.4C281.3 196.4 281.3 196.3 281.3 196.2C281.1 192.6 283 188.7 286.3 185.8C289.5 183.3 293 181.2 296.8 179.7C296.9 179.7 296.9 179.7 297 179.7C297.1 179.7 297.1 179.8 297.1 179.9L298.6 185.4C298.6 185.5 298.6 185.6 298.5 185.7L281.8 196.6H281.7C281.5 196.4 281.4 196.4 281.4 196.4ZM296.6 180.2C293 181.7 289.6 183.7 286.5 186.1C283.4 188.8 281.6 192.4 281.7 195.7L297.9 185.2L296.6 180.2Z" fill="#1C1923"></path><path d="M272.9 256.2C282.7 250 290.6 238.2 296.5 221.1L296 221C290.1 237.9 282.3 249.7 272.6 255.8L272.9 256.2Z" fill="#1C1923"></path><path d="M233.6 220.9C243.4 223.9 252.5 226.8 262.3 229.8L270.7 215.6L259.4 223L235.4 217.2L233.6 220.9Z" fill="#1C1923"></path><path d="M269.6 256.9C270.7 257 271.9 256.7 272.9 256.2L272.6 255.8C268 258.7 247.2 251.4 215.7 235.6L215.5 236.1C231.9 244.2 259 256.9 269.6 256.9Z" fill="#1C1923"></path><path d="M257.3 253.4C257.4 253.4 257.4 253.4 257.5 253.3C263.5 247.3 272.3 245.2 280.4 247.8C280.5 247.8 280.7 247.8 280.7 247.6C280.7 247.5 280.7 247.3 280.5 247.3C272.3 244.5 263.2 246.7 257.1 252.9C257 253 257 253.1 257.1 253.2C257.2 253.4 257.2 253.4 257.3 253.4Z" fill="#1C1923"></path><path d="M233.6 220.6C230.5 226.9 227.6 233.2 224.8 239.6C224.7 239.9 224.3 239.6 224.4 239.4C227.2 233 230.1 226.6 233.2 220.4C233.3 220.1 233.7 220.4 233.6 220.6Z" fill="#1C1923"></path><path d="M231.8 223.4C228.8 222.6 226 221.4 223 220.8C222.7 220.7 222.8 220.3 223.1 220.3C226.1 220.8 229 222.1 231.9 222.9C232 222.9 232.1 223.1 232 223.2C232 223.4 231.9 223.4 231.8 223.4Z" fill="#1C1923"></path><path d="M230.2 226.8C227.3 225.8 224.5 224.8 221.6 223.8C221.3 223.7 221.4 223.2 221.7 223.3C224.6 224.3 227.4 225.3 230.3 226.3C230.6 226.4 230.5 226.9 230.2 226.8Z" fill="#1C1923"></path><path d="M227.9 230.5L220.3 227.8C220 227.7 220.1 227.2 220.4 227.3L228 230C228.3 230.2 228.2 230.7 227.9 230.5Z" fill="#1C1923"></path><path d="M226.6 233.5C223.9 232.6 221.1 231.8 218.4 230.8C218.1 230.7 218.2 230.2 218.5 230.3C221.2 231.4 223.9 232.1 226.7 233C227 233.1 226.9 233.6 226.6 233.5Z" fill="#1C1923"></path><path d="M225.5 237.1C222.6 236.2 219.7 235.1 217 233.7C216.7 233.6 217 233.1 217.2 233.3C219.9 234.6 222.7 235.7 225.6 236.6C225.9 236.7 225.8 237.2 225.5 237.1Z" fill="#1C1923"></path><path d="M242.1 221.9C242.2 221.9 242.3 221.8 242.3 221.7L245.9 212.2C245.9 212.1 245.9 211.9 245.8 211.9C245.7 211.9 245.5 211.9 245.5 212L241.9 221.5C241.8 221.6 241.8 221.8 242.1 221.9Z" fill="#1C1923"></path><path d="M244.1 215.7C244.2 215.7 244.3 215.5 244.3 215.4C244.3 215.3 244.2 215.2 244.1 215.2C242.7 215 241.5 214.7 240.2 214.5C238.9 214.3 237.7 214 236.3 213.8C236.2 213.8 236 213.8 236 214C236 214.1 236 214.3 236.2 214.3C236.2 214.3 236.2 214.3 236.3 214.3C237.7 214.5 238.9 214.7 240.1 215C241.3 215.3 242.6 215.5 244.1 215.7Z" fill="#1C1923"></path><path d="M235.6 212.4L236 212.1C233.4 208.8 231.3 205.8 229.4 202.8C228.3 201.2 227.3 199.7 226.3 198.2L225.9 198.5C226.9 200 227.9 201.5 229 203.1C230.9 206.1 232.9 209.2 235.6 212.4Z" fill="#1C1923"></path><path d="M231.9 218.4L222.5 211.5C221.5 210.9 220.6 210 220.1 208.9C219.7 207.8 220.2 206.2 221.4 206C223.2 205.7 224.4 208.5 226.3 208.4L228.3 208.6" fill="white"></path><path d="M231.9 218.7C232 218.7 232.1 218.7 232.1 218.6C232.2 218.5 232.2 218.3 232.1 218.2L222.7 211.3C221.7 210.7 220.9 209.8 220.4 208.8C220.2 208.2 220.2 207.5 220.5 206.9C220.7 206.5 221 206.3 221.4 206.2C222.2 206 222.9 206.7 223.7 207.3C224.3 208.1 225.3 208.5 226.2 208.6C226.5 208.6 226.8 208.7 227.2 208.7L228.2 208.8C228.3 208.8 228.5 208.7 228.5 208.6C228.5 208.5 228.4 208.3 228.3 208.3L227.3 208.2L226.3 208.1C225.4 208.2 224.8 207.5 224.1 206.9C223.4 206.3 222.5 205.5 221.4 205.7C220.8 205.8 220.4 206.2 220.1 206.7C219.7 207.4 219.7 208.2 219.9 209C220.4 210.1 221.3 211.1 222.4 211.7L231.8 218.6C231.8 218.7 231.9 218.7 231.9 218.7Z" fill="#1C1923"></path><path d="M226.1 198.9C226.2 198.9 226.2 198.9 226.2 198.9C226.3 198.8 226.3 198.7 226.2 198.5C225.7 197.8 225.1 197.2 224.4 196.7C223.6 196.2 222.6 196.1 221.8 196.6C221.7 196.7 221.6 196.8 221.7 196.9C221.8 197 221.9 197.1 222 197C222 197 222.1 197 222.1 196.9C222.8 196.5 223.5 196.6 224.2 197C224.8 197.5 225.4 198 225.8 198.7C226 198.8 226 198.9 226.1 198.9Z" fill="#1C1923"></path><path fill-rule="evenodd" clip-rule="evenodd" d="M441.178 6.79712C439.6 6.8007 438.017 6.83764 436.432 6.90269L436.391 5.90353C437.987 5.838 439.583 5.80073 441.176 5.79712L441.178 6.79712ZM450.649 7.22533C449.083 7.07132 447.506 6.96225 445.921 6.8927L445.965 5.89367C447.567 5.96395 449.161 6.07423 450.747 6.23013L450.649 7.22533ZM431.689 7.17614C430.107 7.29192 428.528 7.43049 426.953 7.58657L426.855 6.59145C428.436 6.43463 430.025 6.29529 431.616 6.1788L431.689 7.17614ZM459.984 8.75519C458.454 8.39226 456.907 8.08679 455.344 7.83315L455.504 6.84607C457.089 7.10332 458.66 7.4134 460.214 7.78221L459.984 8.75519ZM422.224 8.10509C421.435 8.19916 420.647 8.29635 419.863 8.39597L419.861 8.39617C418.988 8.50433 418.115 8.61526 417.242 8.72895L417.112 7.73732C417.987 7.6234 418.862 7.51222 419.738 7.40383C420.524 7.30396 421.314 7.20649 422.106 7.11212L422.224 8.10509ZM412.008 9.44391C410.266 9.69312 408.524 9.95317 406.785 10.2239L406.631 9.23576C408.375 8.96443 410.12 8.70378 411.867 8.45398L412.008 9.44391ZM468.954 11.6846C467.505 11.065 466.03 10.5149 464.533 10.0285L464.843 9.07748C466.366 9.57271 467.869 10.1332 469.347 10.7651L468.954 11.6846ZM401.571 11.0678C399.834 11.3597 398.1 11.662 396.367 11.9747L396.189 10.9906C397.926 10.6772 399.664 10.3742 401.405 10.0816L401.571 11.0678ZM391.174 12.9435C389.445 13.2767 387.719 13.62 385.994 13.9733L385.793 12.9936C387.522 12.6396 389.252 12.2955 390.985 11.9616L391.174 12.9435ZM475.239 14.9261C474.565 14.5131 473.885 14.119 473.197 13.7431L473.677 12.8657C474.379 13.2493 475.073 13.6517 475.761 14.0734C476.453 14.4956 477.131 14.9331 477.796 15.3851L477.233 16.212C476.582 15.769 475.918 15.3404 475.24 14.9269L475.239 14.9261ZM380.825 15.063C379.104 15.4361 377.385 15.8191 375.669 16.2117L375.446 15.2369C377.166 14.8434 378.888 14.4597 380.613 14.0857L380.825 15.063ZM370.526 17.4184C368.814 17.8302 367.104 18.2515 365.397 18.6821L365.153 17.7125C366.863 17.281 368.577 16.8588 370.292 16.4461L370.526 17.4184ZM484.531 22.2594C483.408 21.1448 482.239 20.0782 481.02 19.0655L481.659 18.2963C482.902 19.3288 484.093 20.4153 485.235 21.5497L484.531 22.2594ZM360.282 20.002C359.431 20.2266 358.58 20.4535 357.73 20.6827L357.47 19.7172C358.322 19.4876 359.174 19.2602 360.027 19.0351L360.282 20.002ZM490.734 29.4556C489.783 28.179 488.794 26.9386 487.764 25.74L488.523 25.0884C489.569 26.3056 490.572 27.5642 491.536 28.858L490.734 29.4556ZM495.976 37.4081C495.167 36.0324 494.331 34.6807 493.462 33.3585L494.298 32.8095C495.176 34.1467 496.022 35.5126 496.838 36.9013L495.976 37.4081ZM500.483 45.8221C499.778 44.3909 499.054 42.9725 498.306 41.5719L499.188 41.1009C499.942 42.5122 500.671 43.9405 501.38 45.3803L500.483 45.8221ZM504.501 54.4988C503.86 53.0412 503.207 51.5857 502.538 50.1372L503.446 49.7181C504.118 51.173 504.774 52.6341 505.417 54.096L504.501 54.4988ZM507.34 61.095C507.029 60.362 506.717 59.6275 506.403 58.892L507.323 58.4993C507.637 59.2351 507.949 59.9697 508.259 60.7025C508.585 61.4598 508.91 62.2175 509.235 62.9754L508.315 63.3692C507.991 62.6115 507.666 61.8543 507.341 61.0974L507.34 61.095ZM512.193 72.4663C511.549 70.9488 510.904 69.4319 510.258 67.9161L511.178 67.524C511.824 69.0403 512.469 70.5576 513.114 72.0754L512.193 72.4663ZM514.125 77.0185L515.045 76.6282L516.975 81.1814L516.055 81.5717L514.125 77.0185ZM519.922 90.6759C519.276 89.1596 518.631 87.6423 517.986 86.1245L518.907 85.7336C519.551 87.2511 520.196 88.768 520.842 90.2838L519.922 90.6759ZM522.84 97.496C522.515 96.7392 522.19 95.982 521.865 95.2245L522.785 94.8307C523.109 95.5884 523.434 96.3456 523.759 97.1025L523.761 97.1068C524.146 98.0258 524.535 98.9594 524.916 99.9035L523.989 100.278C523.611 99.341 523.224 98.4134 522.84 97.496ZM527.367 111.709C527.109 109.778 526.637 107.84 526.038 105.912L526.993 105.616C527.604 107.581 528.091 109.576 528.358 111.577L527.367 111.709ZM526.724 120.446C527.031 119.502 527.248 118.549 527.387 117.59L528.376 117.734C528.23 118.745 528.001 119.753 527.676 120.752M518.207 131.86C519.704 130.581 521.119 129.248 522.375 127.818L523.127 128.478C521.829 129.955 520.376 131.322 518.856 132.62L518.207 131.86ZM512.98 136.01C513.196 135.844 513.413 135.678 513.629 135.512L514.238 136.306C514.02 136.472 513.804 136.638 513.587 136.804C513.022 137.236 512.461 137.665 511.906 138.095L511.903 138.098C511.272 138.579 510.644 139.064 510.019 139.554L509.402 138.767C510.03 138.275 510.662 137.786 511.296 137.303C511.852 136.872 512.415 136.441 512.98 136.01ZM502.029 144.882C503.23 143.828 504.445 142.792 505.674 141.773L506.312 142.543C505.09 143.556 503.882 144.586 502.689 145.633L502.029 144.882ZM495.013 151.404C496.151 150.283 497.305 149.179 498.474 148.092L499.155 148.824C497.993 149.905 496.846 151.002 495.715 152.116L495.013 151.404ZM488.393 158.33C489.462 157.141 490.548 155.971 491.651 154.817L492.374 155.508C491.278 156.654 490.199 157.818 489.137 158.998L488.393 158.33ZM483.713 163.783C484.219 163.165 484.73 162.551 485.245 161.941L486.009 162.586C485.498 163.191 484.992 163.8 484.49 164.413C484.489 164.414 484.488 164.415 484.487 164.417L484.442 164.474C484.089 164.92 483.738 165.365 483.403 165.819L482.598 165.225C482.943 164.758 483.304 164.301 483.654 163.858L483.708 163.79L483.713 163.783ZM480.4 170.379C480.428 169.714 480.561 169.082 480.768 168.479L481.714 168.803C481.535 169.327 481.423 169.864 481.4 170.419C481.377 171.046 481.465 171.653 481.64 172.246L480.68 172.529C480.479 171.844 480.373 171.129 480.4 170.381L480.4 170.379ZM483.911 177.815C483.494 177.299 483.064 176.764 482.657 176.211L483.462 175.618C483.853 176.148 484.268 176.666 484.684 177.179C485.222 177.801 485.767 178.415 486.319 179.02L485.58 179.694C485.02 179.08 484.467 178.458 483.922 177.827L483.916 177.821L483.911 177.815ZM492.651 186.715C491.419 185.603 490.212 184.462 489.031 183.291L489.735 182.581C490.904 183.741 492.1 184.871 493.321 185.973L492.651 186.715ZM500.323 193.066C499.001 192.059 497.7 191.028 496.422 189.971L497.059 189.2C498.327 190.248 499.618 191.271 500.929 192.27L500.323 193.066ZM508.448 198.815C507.061 197.9 505.69 196.966 504.337 196.01L504.914 195.193C506.258 196.143 507.62 197.071 508.998 197.981L508.448 198.815ZM516.897 204.064C515.465 203.223 514.045 202.368 512.639 201.496L513.166 200.646C514.565 201.513 515.978 202.365 517.404 203.202L516.897 204.064ZM525.569 208.923C524.108 208.138 522.654 207.343 521.211 206.535L521.699 205.662C523.137 206.467 524.586 207.26 526.043 208.043L525.569 208.923ZM432.917 210.077C434.549 210.176 436.197 210.499 437.82 210.96L437.546 211.922C435.975 211.475 434.399 211.169 432.856 211.075L432.917 210.077ZM534.382 213.51C532.904 212.761 531.43 212.006 529.962 211.244L530.424 210.356C531.888 211.117 533.358 211.871 534.834 212.618L534.382 213.51ZM425.561 211.561C426.323 211.146 427.108 210.826 427.911 210.589L428.194 211.549C427.457 211.766 426.737 212.06 426.039 212.439L425.561 211.561ZM442.471 212.635C443.234 212.96 443.982 213.301 444.711 213.647C445.556 214.04 446.398 214.439 447.236 214.844L446.801 215.745C445.967 215.341 445.129 214.944 444.289 214.553L444.286 214.552C443.565 214.21 442.828 213.875 442.079 213.555L442.471 212.635ZM543.267 217.94C541.783 217.208 540.3 216.475 538.819 215.738L539.265 214.842C540.744 215.579 542.226 216.312 543.709 217.043L543.267 217.94ZM452.233 217.349C453.887 218.208 455.528 219.09 457.157 219.995L456.671 220.869C455.05 219.969 453.417 219.091 451.773 218.237L452.233 217.349ZM552.167 222.326C550.687 221.593 549.203 220.862 547.719 220.131L548.16 219.234C549.645 219.965 551.129 220.696 552.611 221.43L552.167 222.326ZM462.005 222.776C463.608 223.725 465.198 224.695 466.775 225.687L466.243 226.534C464.674 225.547 463.091 224.581 461.496 223.636L462.005 222.776ZM561.024 226.783C559.557 226.029 558.083 225.281 556.605 224.538L557.054 223.645C558.535 224.389 560.011 225.138 561.481 225.893L561.024 226.783ZM569.777 231.426C568.334 230.632 566.88 229.848 565.418 229.074L565.886 228.19C567.353 228.967 568.811 229.753 570.259 230.55L569.777 231.426ZM471.467 228.724C472.242 229.24 473.014 229.761 473.783 230.287C474.554 230.815 475.323 231.351 476.089 231.894L475.51 232.71C474.749 232.17 473.985 231.638 473.217 231.112C472.453 230.589 471.684 230.07 470.913 229.556L471.467 228.724ZM578.353 236.372C576.947 235.518 575.526 234.679 574.092 233.854L574.591 232.987C576.031 233.816 577.459 234.659 578.872 235.518L578.353 236.372ZM480.611 235.24C482.095 236.39 483.552 237.576 484.97 238.807L484.315 239.562C482.912 238.345 481.469 237.17 479.999 236.031L480.611 235.24ZM586.66 241.741C585.307 240.807 583.936 239.893 582.547 238.997L583.089 238.157C584.486 239.058 585.866 239.978 587.228 240.918L586.66 241.741ZM489.103 242.642C490.437 243.972 491.719 245.351 492.936 246.787L492.173 247.434C490.975 246.021 489.713 244.662 488.397 243.35L489.103 242.642ZM594.584 247.646C593.305 246.613 592.002 245.605 590.678 244.62L591.275 243.818C592.609 244.81 593.922 245.826 595.212 246.868L594.584 247.646ZM601.982 254.181C600.801 253.035 599.592 251.919 598.358 250.83L599.02 250.08C600.265 251.179 601.486 252.306 602.678 253.463L601.982 254.181ZM496.38 251.269C496.915 252.043 497.431 252.832 497.926 253.638C498.352 254.334 498.752 255.03 499.124 255.727L498.243 256.198C497.879 255.519 497.49 254.84 497.074 254.161C496.588 253.371 496.082 252.597 495.557 251.838L496.38 251.269ZM608.695 261.405C607.639 260.139 606.551 258.906 605.434 257.705L606.166 257.024C607.295 258.238 608.395 259.484 609.463 260.765L608.695 261.405ZM501.125 260.098C501.711 261.627 502.182 263.157 502.553 264.689L501.581 264.924C501.22 263.433 500.761 261.943 500.191 260.455L501.125 260.098ZM613.19 267.286C612.717 266.608 612.235 265.939 611.745 265.279L612.548 264.683C613.044 265.351 613.531 266.028 614.01 266.714C614.513 267.433 614.999 268.16 615.469 268.894L614.626 269.432C614.164 268.71 613.685 267.994 613.19 267.286ZM503.388 269.421C503.571 271.017 503.66 272.615 503.668 274.213L502.668 274.218C502.66 272.653 502.574 271.092 502.395 269.535L503.388 269.421ZM619.415 278.564C618.76 276.99 618.028 275.432 617.22 273.895L618.106 273.43C618.926 274.992 619.672 276.578 620.339 278.18L619.415 278.564ZM503.471 278.999C503.337 280.581 503.14 282.163 502.895 283.746L501.907 283.593C502.149 282.029 502.343 280.47 502.475 278.915L503.471 278.999ZM622.442 288.401C622.109 286.735 621.684 285.069 621.172 283.411L622.127 283.116C622.649 284.805 623.082 286.504 623.423 288.205L622.442 288.401ZM502.038 288.442C501.718 289.989 501.366 291.539 500.994 293.089L500.021 292.856C500.392 291.313 500.742 289.774 501.059 288.239L502.038 288.442ZM623.31 298.636C623.371 296.938 623.324 295.222 623.175 293.497L624.171 293.411C624.324 295.175 624.372 296.932 624.31 298.672L623.31 298.636ZM499.308 299.785C499.092 300.623 498.876 301.461 498.662 302.302L497.693 302.055C497.907 301.216 498.123 300.375 498.34 299.535C498.519 298.84 498.698 298.147 498.874 297.456L499.843 297.703C499.665 298.398 499.487 299.092 499.308 299.785ZM621.573 308.725C622.098 307.099 622.503 305.435 622.791 303.743L623.777 303.911C623.481 305.649 623.065 307.359 622.524 309.032L621.573 308.725ZM497.521 306.903C497.338 307.671 497.16 308.44 496.988 309.209C496.84 309.873 496.711 310.549 496.605 311.231L495.617 311.077C495.727 310.372 495.86 309.675 496.012 308.991C496.185 308.217 496.364 307.443 496.548 306.671L497.521 306.903ZM617.002 317.861C618.003 316.448 618.88 314.981 619.635 313.47L620.53 313.917C619.752 315.473 618.849 316.984 617.818 318.439L617.002 317.861ZM496.267 315.32C496.262 316.699 496.378 318.063 496.644 319.377L495.663 319.575C495.383 318.185 495.262 316.752 495.267 315.317L496.267 315.32ZM609.931 325.259C611.313 324.167 612.58 323.015 613.735 321.81L614.457 322.503C613.269 323.741 611.968 324.924 610.551 326.044L609.931 325.259ZM497.95 323.193C498.253 323.785 498.601 324.355 498.999 324.899C499.48 325.523 500.016 326.102 500.595 326.64L499.914 327.372C499.298 326.799 498.722 326.179 498.204 325.505L498.197 325.496C497.764 324.906 497.387 324.288 497.059 323.649L497.95 323.193ZM603.466 329.458C604.236 329.048 604.982 328.624 605.703 328.187L606.222 329.042C605.484 329.489 604.722 329.923 603.935 330.341L603.934 330.342C603.075 330.796 602.206 331.226 601.328 331.631L600.909 330.723C601.771 330.325 602.624 329.904 603.466 329.458ZM504.476 329.428C505.178 329.83 505.896 330.201 506.616 330.549C507.425 330.928 508.241 331.289 509.065 331.632L508.681 332.555C507.843 332.206 507.011 331.839 506.188 331.453L506.183 331.45C505.446 331.094 504.706 330.712 503.98 330.296L504.476 329.428ZM590.13 334.466C591.983 334.003 593.812 333.466 595.611 332.846L595.937 333.791C594.109 334.421 592.252 334.966 590.373 335.436L590.13 334.466ZM514.101 333.485C515.8 334.033 517.524 334.518 519.269 334.944L519.032 335.915C517.265 335.484 515.518 334.993 513.793 334.436L514.101 333.485ZM578.858 336.451C580.759 336.237 582.652 335.972 584.531 335.646L584.702 336.631C582.802 336.961 580.888 337.229 578.97 337.445L578.858 336.451ZM524.529 336.049C526.289 336.362 528.064 336.625 529.851 336.844L529.729 337.837C527.926 337.616 526.133 337.35 524.354 337.033L524.529 336.049ZM570.278 337.1C571.233 337.059 572.188 337.008 573.144 336.948L573.208 337.946C572.245 338.007 571.282 338.058 570.322 338.099C569.427 338.138 568.527 338.178 567.623 338.219L567.578 337.22C568.483 337.179 569.383 337.139 570.278 337.1ZM535.21 337.374C536.997 337.511 538.792 337.612 540.59 337.682L540.551 338.681C538.742 338.611 536.934 338.51 535.133 338.371L535.21 337.374ZM556.776 337.657C558.587 337.6 560.388 337.531 562.175 337.456L562.217 338.455C560.427 338.53 558.623 338.599 556.808 338.656L556.776 337.657ZM545.981 337.806C547.782 337.821 549.583 337.812 551.378 337.786L551.393 338.785C549.591 338.812 547.783 338.821 545.973 338.806L545.981 337.806Z" fill="#455166"></path><path fill-rule="evenodd" clip-rule="evenodd" d="M245.031 60.2433C244.208 60.6728 243.348 61.1073 242.464 61.5504L242.016 60.6566C242.898 60.2139 243.753 59.7823 244.569 59.3567L245.031 60.2433ZM237.352 64.1542C235.678 65.0409 234.006 65.9819 232.406 67.0024L231.868 66.1593C233.498 65.1195 235.196 64.1647 236.883 63.2706L237.352 64.1542ZM227.848 70.3709C226.401 71.6386 225.122 73.0162 224.092 74.5314L223.265 73.969C224.353 72.3695 225.692 70.9296 227.189 69.6187L227.848 70.3709ZM221.809 79.5778C221.594 80.4531 221.454 81.3688 221.399 82.3286L221.399 82.33C221.349 83.1652 221.356 84.0064 221.41 84.8532L220.412 84.9175C220.355 84.0336 220.348 83.1507 220.401 82.27L220.9 82.3L220.401 82.2713C220.401 82.2709 220.401 82.2704 220.401 82.27C220.46 81.2498 220.608 80.2739 220.838 79.3392L221.809 79.5778ZM222.207 89.8742C222.595 91.5102 223.087 93.1562 223.618 94.8108L222.666 95.1164C222.132 93.4511 221.631 91.7773 221.234 90.1051L222.207 89.8742ZM225.238 99.7228C225.781 101.389 226.295 103.058 226.711 104.719L225.741 104.962C225.334 103.334 224.827 101.69 224.287 100.032L225.238 99.7228ZM97.9405 108.961C96.3595 108.984 94.7775 109.045 93.1944 109.15L93.1286 108.152C94.7295 108.046 96.3288 107.984 97.9263 107.961L97.9405 108.961ZM107.439 109.271C105.858 109.15 104.276 109.061 102.692 109.008L102.726 108.009C104.324 108.062 105.921 108.152 107.516 108.274L107.439 109.271ZM88.4676 109.591C86.9044 109.782 85.3401 110.017 83.7747 110.3L83.5966 109.316C85.1815 109.029 86.765 108.791 88.3469 108.599L88.4676 109.591ZM116.892 110.355C115.321 110.12 113.748 109.909 112.174 109.728L112.289 108.734C113.875 108.917 115.459 109.129 117.04 109.367L116.892 110.355ZM227.607 109.892C227.751 111.669 227.692 113.436 227.338 115.182L226.358 114.983C226.69 113.346 226.748 111.675 226.611 109.972L227.607 109.892ZM126.267 112.035C124.709 111.715 123.15 111.413 121.59 111.132L121.767 110.148C123.336 110.43 124.903 110.734 126.469 111.056L126.267 112.035ZM79.1314 111.285C78.3656 111.471 77.5995 111.67 76.8331 111.882C75.9921 112.116 75.1556 112.364 74.324 112.625L74.0248 111.67C74.8669 111.406 75.714 111.156 76.5659 110.918L76.5669 110.918C77.3431 110.704 78.119 110.502 78.8946 110.313L79.1314 111.285ZM135.567 114.137C134.021 113.761 132.474 113.395 130.926 113.044L131.147 112.069C132.701 112.421 134.254 112.788 135.804 113.166L135.567 114.137ZM69.3813 114.35C67.7514 114.977 66.1423 115.655 64.5553 116.381L64.1393 115.471C65.7447 114.737 67.3727 114.051 69.0221 113.416L69.3813 114.35ZM144.814 116.498C143.276 116.091 141.736 115.689 140.195 115.295L140.443 114.326C141.987 114.721 143.529 115.124 145.069 115.531L144.814 116.498ZM150.914 118.124C150.419 117.991 149.923 117.859 149.428 117.726L149.687 116.76C150.185 116.893 150.683 117.027 151.18 117.16C152.221 117.439 153.261 117.718 154.3 117.995L154.043 118.961C153 118.683 151.957 118.404 150.914 118.124ZM59.8606 118.701C58.3197 119.521 56.8023 120.386 55.3099 121.295L54.7899 120.44C56.2986 119.522 57.8328 118.647 59.391 117.818L59.8606 118.701ZM160.975 120.784C160.205 120.586 159.434 120.386 158.662 120.184L158.915 119.216C159.686 119.418 160.455 119.618 161.225 119.816C161.931 119.997 162.682 120.199 163.474 120.416L163.209 121.381C162.42 121.164 161.675 120.964 160.976 120.784L160.975 120.784ZM225.42 120.138C224.982 120.873 224.474 121.599 223.887 122.317L223.5 122L223.888 122.315C223.888 122.316 223.887 122.316 223.887 122.317C223.374 122.947 222.822 123.529 222.233 124.066L221.559 123.328C222.112 122.823 222.631 122.276 223.112 121.684L223.113 121.683C223.669 121.003 224.149 120.318 224.56 119.627L225.42 120.138ZM167.766 122.667L167.707 122.65L167.981 121.688L168.04 121.705C169.445 122.106 170.927 122.529 172.469 122.96L172.2 123.923C170.655 123.491 169.171 123.068 167.766 122.667ZM50.9136 124.144C49.476 125.134 48.0646 126.164 46.6807 127.232L46.0696 126.441C47.4677 125.361 48.8938 124.32 50.3465 123.32L50.9136 124.144ZM181.255 126.304C179.712 125.931 178.195 125.544 176.716 125.153L176.971 124.186C178.445 124.576 179.955 124.961 181.49 125.332L181.255 126.304ZM218.279 126.77C216.893 127.472 215.4 128.023 213.822 128.445L213.564 127.479C215.084 127.073 216.511 126.544 217.827 125.878L218.279 126.77ZM190.425 128.242C188.885 127.972 187.347 127.67 185.823 127.345L186.031 126.367C187.545 126.689 189.071 126.989 190.598 127.257L190.425 128.242ZM199.739 129.426C198.197 129.318 196.635 129.157 195.064 128.954L195.192 127.963C196.746 128.164 198.289 128.322 199.809 128.429L199.739 129.426ZM209.16 129.309C207.634 129.483 206.057 129.569 204.442 129.582L204.435 128.582C206.019 128.57 207.561 128.485 209.046 128.316L209.16 129.309ZM42.6193 130.544C41.2957 131.683 40.0008 132.857 38.7359 134.064L38.0455 133.341C39.3227 132.122 40.6303 130.936 41.9671 129.786L42.6193 130.544ZM35.0368 137.778C33.8354 139.047 32.6653 140.346 31.5278 141.673L30.7686 141.022C31.9167 139.683 33.0979 138.371 34.3107 137.091L35.0368 137.778ZM28.2148 145.736C27.1432 147.118 26.1057 148.525 25.1035 149.956L24.2845 149.383C25.2959 147.939 26.3431 146.518 27.4245 145.123L28.2148 145.736ZM20.8545 156.514C21.2942 155.779 21.7429 155.048 22.2005 154.322L21.3547 153.789C20.884 154.535 20.4226 155.287 19.9707 156.044L19.9456 156.086L19.9291 156.132C19.6281 156.976 19.346 157.804 19.0824 158.618L20.0337 158.926C20.2894 158.137 20.5629 157.333 20.8545 156.514ZM18.6383 163.777C18.2094 165.501 17.8768 167.144 17.6364 168.712L16.6479 168.56C16.8934 166.96 17.2323 165.286 17.6679 163.535L18.6383 163.777ZM17.1696 173.693C17.1199 175.467 17.2107 177.123 17.4329 178.668L16.4431 178.81C16.212 177.203 16.1189 175.49 16.17 173.665L17.1696 173.693ZM184.555 179.736C186.322 179.773 188.083 179.921 189.833 180.199L189.676 181.186C187.975 180.916 186.259 180.772 184.534 180.736L184.555 179.736ZM174.043 180.678C175.784 180.353 177.528 180.101 179.271 179.938L179.364 180.933C177.655 181.093 175.941 181.341 174.226 181.661L174.043 180.678ZM194.999 181.423C196.651 181.952 198.287 182.617 199.904 183.433L199.453 184.326C197.884 183.534 196.297 182.889 194.694 182.375L194.999 181.423ZM163.847 183.296C165.523 182.766 167.208 182.273 168.9 181.833L169.152 182.801C167.48 183.236 165.811 183.724 164.149 184.249L163.847 183.296ZM18.6712 183.479C19.2858 185.063 20.0801 186.5 21.041 187.803L20.2361 188.396C19.2223 187.021 18.3853 185.506 17.739 183.841L18.6712 183.479ZM153.947 186.793C155.571 186.176 157.213 185.565 158.869 184.976L159.204 185.918C157.557 186.504 155.922 187.113 154.302 187.728L153.947 186.793ZM204.439 186.17C205.831 187.156 207.204 188.272 208.554 189.526L207.874 190.259C206.555 189.033 205.216 187.946 203.861 186.986L204.439 186.17ZM144.169 190.539C145.773 189.94 147.404 189.312 149.059 188.673L149.419 189.605C147.764 190.245 146.129 190.875 144.519 191.476L144.169 190.539ZM24.4674 191.372C25.7117 192.384 27.103 193.285 28.6311 194.085L28.1673 194.971C26.5868 194.144 25.1384 193.206 23.8365 192.148L24.4674 191.372ZM134.276 193.823C135.89 193.389 137.55 192.873 139.252 192.299L139.572 193.246C137.856 193.825 136.175 194.348 134.536 194.788L134.276 193.823ZM212.203 193.327C212.771 193.987 213.335 194.675 213.894 195.393L213.106 196.007C212.556 195.303 212.003 194.627 211.445 193.979L212.203 193.327ZM126.666 195.201C127.497 195.144 128.349 195.047 129.219 194.914L129.37 195.902C128.476 196.039 127.597 196.14 126.734 196.199L126.734 196.199C125.892 196.256 125.048 196.315 124.203 196.376L124.131 195.379C124.977 195.318 125.822 195.259 126.666 195.201ZM113.977 196.175C115.669 196.034 117.362 195.896 119.052 195.763L119.13 196.76C117.442 196.893 115.751 197.031 114.06 197.172L113.977 196.175ZM33.2388 196.06C34.7585 196.59 36.3704 197.051 38.0673 197.45L37.8386 198.424C36.1119 198.018 34.4661 197.547 32.9094 197.004L33.2388 196.06ZM103.836 197.045C105.522 196.898 107.212 196.751 108.905 196.606L108.99 197.602C107.39 197.74 105.791 197.879 104.195 198.017L103.922 198.041L103.836 197.045ZM93.6965 197.912C95.3791 197.773 97.07 197.629 98.7672 197.484L98.8528 198.48C97.1549 198.626 95.463 198.769 93.7791 198.909L93.6965 197.912ZM83.5516 198.696C85.2299 198.579 86.9218 198.453 88.6247 198.32L88.7021 199.317C86.9971 199.45 85.3028 199.576 83.6215 199.694L83.5516 198.696ZM43.0386 198.407C44.6557 198.658 46.3319 198.864 48.062 199.031L47.966 200.027C46.2189 199.858 44.5237 199.649 42.8855 199.395L43.0386 198.407ZM73.4005 199.3C75.0738 199.222 76.7668 199.13 78.4768 199.028L78.5367 200.026C76.8228 200.129 75.1255 200.221 73.4472 200.299L73.4005 199.3ZM53.1054 199.401C54.7553 199.488 56.4449 199.545 58.1706 199.576L58.1524 200.576C56.4166 200.545 54.7155 200.487 53.0532 200.4L53.1054 199.401ZM63.2452 199.597C64.9109 199.583 66.6044 199.549 68.3228 199.497L68.3528 200.497C66.6281 200.548 64.9274 200.583 63.2539 200.597L63.2452 199.597Z" fill="#455166"></path><path d="M499.6 163.6V190.8H465V150.9H500" fill="white"></path><path d="M499.9 191.1H464.7V150.6H500V151.1H465.2V190.6H499.4V150.6H499.9V191.1Z" fill="#1C1923"></path><path d="M471.1 167H489C489.1 167 489.2 166.8 489.2 166.7C489.2 166.6 489.1 166.5 489 166.5L471.1 166.6C471 166.6 470.9 166.7 470.9 166.8C470.9 166.9 470.9 167 471.1 167Z" fill="#1C1923"></path><path d="M471.1 172.8L492.7 172.7C492.8 172.7 492.9 172.6 492.9 172.5C492.9 172.4 492.8 172.3 492.7 172.3L471.1 172.4C471 172.4 470.9 172.5 470.9 172.6C470.9 172.7 470.9 172.8 471.1 172.8Z" fill="#1C1923"></path><path d="M471.1 178.5C475.5 178.5 479.9 178.4 484.2 178.4C484.3 178.4 484.4 178.3 484.4 178.2C484.4 178.1 484.3 178 484.2 178C479.8 178 475.4 178.1 471.1 178.1C471 178.1 470.9 178.2 470.9 178.3C470.9 178.4 470.9 178.5 471.1 178.5Z" fill="#1C1923"></path><path d="M144.2 94.6L127.3 152.4H168.8L184.6 94.6H144.2Z" fill="white"></path><path d="M169 152.7H127L127.1 152.4L144.1 94.4H185.1L185 94.7L169 152.7ZM127.6 152.2H168.6L184.3 94.8H144.3L127.6 152.2Z" fill="#1C1923"></path><path d="M144.6 127H168C168.2 127 168.3 126.8 168.3 126.6C168.3 126.4 168.1 126.3 168 126.3H144.6C144.4 126.3 144.3 126.5 144.3 126.7C144.3 126.8 144.4 127 144.6 127Z" fill="#1C1923"></path><path d="M142.5 132.6H166C166.2 132.6 166.3 132.4 166.3 132.2C166.3 132 166.1 131.9 166 131.9H142.5C142.3 131.9 142.2 132.1 142.2 132.3C142.2 132.5 142.4 132.6 142.5 132.6Z" fill="#1C1923"></path><path d="M140.5 138.3H158C158.2 138.3 158.4 138.1 158.4 137.9C158.4 137.7 158.2 137.5 158 137.5H140.4C140.2 137.5 140 137.7 140 137.9C140.1 138.1 140.3 138.3 140.5 138.3Z" fill="#1C1923"></path><path d="M164.4 115.3C164 117 161.3 117.9 159.1 117.9C156.9 117.9 154.3 117 154.4 115.2C154.5 113.4 157.3 112.5 159.9 112.6C162.5 112.7 164.9 113.5 164.4 115.3Z" fill="#1C1923"></path><path d="M160.9 106.8C159.5 106.7 158.2 107.7 157.9 109.1C157.8 110.3 158.7 111.3 159.9 111.4C160 111.4 160.1 111.4 160.2 111.4C161.5 111.5 162.8 110.6 163.1 109.3C163.3 108.1 162.5 107 161.4 106.8C161.2 106.8 161 106.7 160.9 106.8Z" fill="#1C1923"></path><path d="M159.1 117.9C155.2 117.9 151.9 115.4 151.9 111.8C151.9 107.7 156.2 104.1 161.3 104.4C166.2 104.7 168.9 108.4 167.7 112.2C166.7 115.5 162.9 117.9 159.1 117.9ZM161.2 104.8C156.4 104.5 152.3 107.9 152.3 111.8C152.3 115.2 155.4 117.6 159.2 117.6C163 117.6 166.4 115.3 167.4 112.2C168.4 108.6 165.8 105.1 161.2 104.8Z" fill="#1C1923"></path></g><defs><clipPath id="clip0"><rect width="624.4" height="343.3" fill="white"></rect></clipPath></defs></svg> 